<?xml version="1.0" encoding="UTF-8" standalone="no"?>
<!-- Created with Inkscape (http://www.inkscape.org/) -->

<svg
   xmlns:dc="http://purl.org/dc/elements/1.1/"
   xmlns:cc="http://creativecommons.org/ns#"
   xmlns:rdf="http://www.w3.org/1999/02/22-rdf-syntax-ns#"
   xmlns:svg="http://www.w3.org/2000/svg"
   xmlns="http://www.w3.org/2000/svg"
   xmlns:sodipodi="http://sodipodi.sourceforge.net/DTD/sodipodi-0.dtd"
   xmlns:inkscape="http://www.inkscape.org/namespaces/inkscape"
   width="169.33333mm"
   height="66.886665mm"
   viewBox="0 0 169.33333 66.886665"
   version="1.1"
   id="svg4682"
   inkscape:version="0.92.2 (5c3e80d, 2017-08-06)"
   sodipodi:docname="logo.svg">
  <defs
     id="defs4676" />
  <sodipodi:namedview
     id="base"
     pagecolor="#ffffff"
     bordercolor="#666666"
     borderopacity="1.0"
     inkscape:pageopacity="0.0"
     inkscape:pageshadow="2"
     inkscape:zoom="0.38062233"
     inkscape:cx="-448.7472"
     inkscape:cy="-618.36743"
     inkscape:document-units="mm"
     inkscape:current-layer="layer1"
     showgrid="false"
     inkscape:window-width="1896"
     inkscape:window-height="1017"
     inkscape:window-x="10"
     inkscape:window-y="51"
     inkscape:window-maximized="0" />
  <metadata
     id="metadata4679">
    <rdf:RDF>
      <cc:Work
         rdf:about="">
        <dc:format>image/svg+xml</dc:format>
        <dc:type
           rdf:resource="http://purl.org/dc/dcmitype/StillImage" />
        <dc:title></dc:title>
      </cc:Work>
    </rdf:RDF>
  </metadata>
  <g
     inkscape:label="Layer 1"
     inkscape:groupmode="layer"
     id="layer1"
     transform="translate(-90.71429,-71.544767)">
    <path
       style="opacity:0.98999999;fill:#000000;stroke-width:0.08466666"
       d="M 90.71429,104.9881 V 71.544767 h 84.66666 84.66667 V 104.9881 138.43143 H 175.38095 90.71429 Z m 165.354,22.18267 v -7.112 h -80.899 -80.899 v 7.112 7.112 h 80.899 80.899 z m -89.789,-15.92119 c 6.14782,-0.45556 9.60932,-2.38187 10.83296,-6.02851 0.44602,-1.32918 0.58588,-3.19833 0.34869,-4.65962 -0.29399,-1.811083 -0.97264,-2.991253 -2.34235,-4.073313 -0.79882,-0.63107 -1.62909,-1.08705 -2.63018,-1.44449 l -0.75676,-0.2702 0.61815,-0.30902 c 1.25363,-0.6267 2.34398,-1.65138 2.93286,-2.75624 0.14159,-0.26564 0.36114,-0.82485 0.48791,-1.2427 0.20958,-0.69081 0.23092,-0.88643 0.23522,-2.15672 0.005,-1.53644 -0.0962,-2.11267 -0.54924,-3.11966 -0.70682,-1.57129 -2.21706,-2.94275 -4.06988,-3.69592 -1.32364,-0.53806 -2.5062,-0.81508 -4.59938,-1.07744 -1.27638,-0.15999 -5.82519,-0.13161 -7.66233,0.0478 -1.58145,0.15444 -3.55692,0.45334 -3.66208,0.55409 -0.0351,0.0336 -0.0541,6.70707 -0.0423,14.82995 l 0.0214,14.768883 0.762,0.14389 c 2.50102,0.47227 7.21507,0.70117 10.07533,0.48922 z m -4.91067,-3.52312 c -0.18626,-0.0149 -0.65299,-0.0501 -1.03716,-0.078 l -0.6985,-0.0509 v -5.37676 -5.376753 l 3.78883,0.0396 c 3.83801,0.0402 4.32613,0.0752 5.69383,0.40819 2.76735,0.67387 4.20252,2.54036 4.0374,5.250753 -0.086,1.41093 -0.5061,2.31686 -1.50717,3.24981 -1.18217,1.10172 -2.85556,1.65947 -5.70523,1.90159 -0.92552,0.0786 -3.74674,0.0987 -4.572,0.0324 z m -1.73566,-19.020983 v -4.70123 l 0.5715,-0.0696 c 0.31432,-0.0383 1.6383,-0.0699 2.94216,-0.0702 1.91547,-5e-4 2.5495,0.0294 3.302,0.15588 3.47378,0.58365 5.207,2.10845 5.207,4.58086 0,2.05646 -1.19178,3.55809 -3.38666,4.26714 -1.18163,0.38173 -1.97841,0.45524 -5.3975,0.49798 l -3.2385,0.0405 z m 82.97333,22.385063 c 2.21566,-0.33765 3.97273,-0.85485 5.63033,-1.65732 4.17765,-2.02245 6.73195,-5.65461 7.46676,-10.617573 0.18165,-1.22686 0.20506,-4.56582 0.0404,-5.76555 -1.0997,-8.01366 -6.73109,-12.487 -16.05852,-12.75619 -2.70896,-0.0782 -6.14059,0.15605 -8.08567,0.55191 l -0.71967,0.14647 v 14.81169 14.811703 l 0.97367,0.18726 c 1.98126,0.38104 4.21054,0.53165 7.28133,0.49191 1.80283,-0.0233 2.58632,-0.0694 3.47134,-0.20431 z m -6.731,-3.55727 -0.762,-0.0475 -0.0215,-11.637133 c -0.0118,-6.40042 0.0106,-11.6692 0.0498,-11.70838 0.12668,-0.12668 4.53065,-0.18248 5.77135,-0.0731 3.36831,0.29687 5.67173,1.2537 7.42651,3.08493 0.36421,0.38007 0.84389,0.96498 1.06597,1.29979 1.35581,2.04411 2.0216,4.86745 1.89297,8.02725 -0.14231,3.49583 -1.07353,6.004833 -2.95894,7.972383 -1.70863,1.78307 -3.9957,2.75744 -7.20838,3.07102 -0.93792,0.0915 -3.86381,0.0975 -5.25579,0.0108 z m -137.11767,-3.4765 v -7.027333 h 7.493 7.493 v 7.027333 7.02733 h 2.11667 2.11667 v -15.240003 -15.24 h -2.11667 -2.11667 v 6.35 6.35 h -7.493 -7.493 v -6.35 -6.35 h -2.11666 -2.11667 v 15.24 15.240003 h 2.11667 2.11666 z m 40.04734,0.89096 v -6.136363 l 0.67677,-1.06139 c 2.83199,-4.44141 6.49849,-10.61751 8.84685,-14.90221 0.40835,-0.74507 0.85474,-1.55469 0.99197,-1.79917 l 0.2495,-0.4445 h -2.3739 -2.3739 l -1.10167,2.18017 c -1.29629,2.56532 -2.45121,4.69256 -3.94167,7.26017 -1.33185,2.29435 -2.88072,4.81349 -2.97677,4.84153 -0.14082,0.0411 -3.17383,-5.03018 -4.87043,-8.14353 -0.50753,-0.93134 -1.41787,-2.69346 -2.02298,-3.91584 l -1.10022,-2.2225 h -2.50071 -2.5007 l 0.35819,0.65617 c 3.08642,5.6539 6.42465,11.36298 9.23554,15.79476 l 1.17079,1.84593 v 6.091573 6.09157 h 2.11667 2.11667 z m 51.05399,0.16737 v -5.969003 h 3.12613 3.12612 l 0.37846,0.4445 c 0.69349,0.814493 2.71626,3.559533 3.66536,4.974173 1.15074,1.71518 2.3339,3.6375 3.20481,5.207 0.36177,0.65193 0.68452,1.21453 0.71722,1.25022 0.0327,0.0357 1.09689,0.0547 2.36484,0.0423 l 2.30538,-0.0226 -0.67509,-1.35467 c -1.44625,-2.90211 -4.40203,-7.42884 -6.91691,-10.593153 l -0.61342,-0.77183 0.78967,-0.31255 c 1.14634,-0.45371 2.23401,-1.15607 3.09118,-1.99613 0.80248,-0.78648 1.11317,-1.20335 1.5548,-2.08621 0.67129,-1.34199 0.93814,-2.695 0.87432,-4.43313 -0.13219,-3.60026 -1.59965,-6.01176 -4.59643,-7.5534 -2.03876,-1.04881 -4.42876,-1.55772 -7.73977,-1.64807 -2.76529,-0.0755 -6.18153,0.15705 -8.128,0.55319 l -0.71967,0.14646 -0.0214,15.04591 -0.0214,15.045913 h 2.11689 2.1169 z m 0,-15.242653 c 0,-5.36687 0.009,-5.72122 0.14817,-5.77562 0.0815,-0.0319 1.46262,-0.0588 3.06917,-0.0597 2.43016,-0.001 3.06327,0.0235 3.76766,0.14865 1.31958,0.23444 1.80094,0.37806 2.667,0.79573 0.64405,0.31059 0.92296,0.50784 1.39958,0.98976 0.97741,0.9883 1.35898,1.91598 1.44904,3.52287 0.10059,1.79474 -0.35566,3.20963 -1.3482,4.18093 -1.47209,1.44061 -3.68985,1.91389 -8.97225,1.91473 l -2.18017,3.4e-4 z m 31.32667,5.97165 v -15.24 h -2.11667 -2.11666 v 15.24 15.240003 h 2.11666 2.11667 z"
       id="path5305"
       inkscape:connector-curvature="0" />
  </g>
</svg>
